{
    "asset" : {
        "generator" : "Khronos glTF Blender I/O v1.8.19",
        "version" : "2.0"
    },
    "scene" : 0,
    "scenes" : [
        {
            "name" : "Scene",
            "nodes" : [
                0,
                1
            ]
        }
    ],
    "nodes" : [
        {
            "mesh" : 0,
            "name" : "BoxScene",
            "scale" : [
                13.937711715698242,
                14.526700973510742,
                14.473012924194336
            ],
            "translation" : [
                0,
                9.14851188659668,
                0
            ]
        },
        {
            "mesh" : 1,
            "name" : "Cylinder",
            "scale" : [
                6.010953426361084,
                6.010953426361084,
                6.010953426361084
            ],
            "translation" : [
                0,
                4.526263236999512,
                0
            ]
        }
    ],
    "materials" : [
        {
            "doubleSided" : true,
            "name" : "Material.001",
            "pbrMetallicRoughness" : {
                "baseColorFactor" : [
                    0.0084562748670578,
                    0.8000000715255737,
                    0.22199122607707977,
                    1
                ],
                "metallicFactor" : 0,
                "roughnessFactor" : 0.5
            }
        },
        {
            "doubleSided" : true,
            "name" : "Material.008",
            "pbrMetallicRoughness" : {
                "baseColorFactor" : [
                    0.05529322475194931,
                    0,
                    0.4292212426662445,
                    1
                ],
                "metallicFactor" : 0,
                "roughnessFactor" : 0.5
            }
        },
        {
            "alphaMode" : "BLEND",
            "doubleSided" : true,
            "name" : "Material.010",
            "pbrMetallicRoughness" : {
                "baseColorFactor" : [
                    0.800000011920929,
                    0.800000011920929,
                    0.800000011920929,
                    0
                ],
                "metallicFactor" : 0,
                "roughnessFactor" : 0
            }
        },
        {
            "doubleSided" : true,
            "name" : "Material.011",
            "pbrMetallicRoughness" : {
                "baseColorFactor" : [
                    0.3177838921546936,
                    0.02536703273653984,
                    1,
                    1
                ],
                "metallicFactor" : 0,
                "roughnessFactor" : 0.5
            }
        }
    ],
    "meshes" : [
        {
            "name" : "Plane",
            "primitives" : [
                {
                    "attributes" : {
                        "POSITION" : 0,
                        "NORMAL" : 1,
                        "TEXCOORD_0" : 2
                    },
                    "indices" : 3,
                    "material" : 0
                }
            ]
        },
        {
            "name" : "Cylinder",
            "primitives" : [
                {
                    "attributes" : {
                        "POSITION" : 4,
                        "NORMAL" : 5,
                        "TEXCOORD_0" : 6
                    },
                    "indices" : 7,
                    "material" : 1
                },
                {
                    "attributes" : {
                        "POSITION" : 8,
                        "NORMAL" : 9,
                        "TEXCOORD_0" : 10
                    },
                    "indices" : 11,
                    "material" : 2
                },
                {
                    "attributes" : {
                        "POSITION" : 12,
                        "NORMAL" : 13,
                        "TEXCOORD_0" : 14
                    },
                    "indices" : 15,
                    "material" : 3
                }
            ]
        }
    ],
    "accessors" : [
        {
            "bufferView" : 0,
            "componentType" : 5126,
            "count" : 20,
            "max" : [
                1,
                1.3189048767089844,
                1
            ],
            "min" : [
                -1,
                -1.3189048767089844,
                -1
            ],
            "type" : "VEC3"
        },
        {
            "bufferView" : 1,
            "componentType" : 5126,
            "count" : 20,
            "type" : "VEC3"
        },
        {
            "bufferView" : 2,
            "componentType" : 5126,
            "count" : 20,
            "type" : "VEC2"
        },
        {
            "bufferView" : 3,
            "componentType" : 5123,
            "count" : 30,
            "type" : "SCALAR"
        },
        {
            "bufferView" : 4,
            "componentType" : 5126,
            "count" : 74,
            "max" : [
                1.0217070579528809,
                2.0732040405273438,
                1.0217070579528809
            ],
            "min" : [
                -1.0217070579528809,
                -0.9689105749130249,
                -1.0217070579528809
            ],
            "type" : "VEC3"
        },
        {
            "bufferView" : 5,
            "componentType" : 5126,
            "count" : 74,
            "type" : "VEC3"
        },
        {
            "bufferView" : 6,
            "componentType" : 5126,
            "count" : 74,
            "type" : "VEC2"
        },
        {
            "bufferView" : 7,
            "componentType" : 5123,
            "count" : 120,
            "type" : "SCALAR"
        },
        {
            "bufferView" : 8,
            "componentType" : 5126,
            "count" : 8,
            "max" : [
                1.0217070579528809,
                1.9285410642623901,
                1.0217070579528809
            ],
            "min" : [
                -1.0217070579528809,
                -0.9689105749130249,
                0.9134240746498108
            ],
            "type" : "VEC3"
        },
        {
            "bufferView" : 9,
            "componentType" : 5126,
            "count" : 8,
            "type" : "VEC3"
        },
        {
            "bufferView" : 10,
            "componentType" : 5126,
            "count" : 8,
            "type" : "VEC2"
        },
        {
            "bufferView" : 11,
            "componentType" : 5123,
            "count" : 12,
            "type" : "SCALAR"
        },
        {
            "bufferView" : 12,
            "componentType" : 5126,
            "count" : 24,
            "max" : [
                0.9134240746498108,
                1.524740219116211,
                0.9134240746498108
            ],
            "min" : [
                -0.9134240746498108,
                1.3988436460494995,
                -0.9134240746498108
            ],
            "type" : "VEC3"
        },
        {
            "bufferView" : 13,
            "componentType" : 5126,
            "count" : 24,
            "type" : "VEC3"
        },
        {
            "bufferView" : 14,
            "componentType" : 5126,
            "count" : 24,
            "type" : "VEC2"
        },
        {
            "bufferView" : 15,
            "componentType" : 5123,
            "count" : 36,
            "type" : "SCALAR"
        }
    ],
    "bufferViews" : [
        {
            "buffer" : 0,
            "byteLength" : 240,
            "byteOffset" : 0
        },
        {
            "buffer" : 0,
            "byteLength" : 240,
            "byteOffset" : 240
        },
        {
            "buffer" : 0,
            "byteLength" : 160,
            "byteOffset" : 480
        },
        {
            "buffer" : 0,
            "byteLength" : 60,
            "byteOffset" : 640
        },
        {
            "buffer" : 0,
            "byteLength" : 888,
            "byteOffset" : 700
        },
        {
            "buffer" : 0,
            "byteLength" : 888,
            "byteOffset" : 1588
        },
        {
            "buffer" : 0,
            "byteLength" : 592,
            "byteOffset" : 2476
        },
        {
            "buffer" : 0,
            "byteLength" : 240,
            "byteOffset" : 3068
        },
        {
            "buffer" : 0,
            "byteLength" : 96,
            "byteOffset" : 3308
        },
        {
            "buffer" : 0,
            "byteLength" : 96,
            "byteOffset" : 3404
        },
        {
            "buffer" : 0,
            "byteLength" : 64,
            "byteOffset" : 3500
        },
        {
            "buffer" : 0,
            "byteLength" : 24,
            "byteOffset" : 3564
        },
        {
            "buffer" : 0,
            "byteLength" : 288,
            "byteOffset" : 3588
        },
        {
            "buffer" : 0,
            "byteLength" : 288,
            "byteOffset" : 3876
        },
        {
            "buffer" : 0,
            "byteLength" : 192,
            "byteOffset" : 4164
        },
        {
            "buffer" : 0,
            "byteLength" : 72,
            "byteOffset" : 4356
        }
    ],
    "buffers" : [
        {
            "byteLength" : 4428,
            "uri" : "carnotBox.bin"
        }
    ]
}
