{
    "asset" : {
        "generator" : "Khronos glTF Blender I/O v1.8.19",
        "version" : "2.0"
    },
    "scene" : 0,
    "scenes" : [
        {
            "name" : "Scene",
            "nodes" : [
                0,
                1,
                2
            ]
        }
    ],
    "nodes" : [
        {
            "mesh" : 0,
            "name" : "BoxScene",
            "scale" : [
                11.5731201171875,
                14.526700973510742,
                11.458791732788086
            ],
            "translation" : [
                0,
                9.14851188659668,
                0
            ]
        },
        {
            "mesh" : 1,
            "name" : "Cylinder",
            "scale" : [
                6.010953426361084,
                6.010953426361084,
                6.010953426361084
            ],
            "translation" : [
                0,
                4.526263236999512,
                0
            ]
        },
        {
            "mesh" : 2,
            "name" : "Cylinder.001",
            "scale" : [
                6.010953426361084,
                6.010953426361084,
                6.010953426361084
            ],
            "translation" : [
                0,
                18.975955963134766,
                0
            ]
        }
    ],
    "materials" : [
        {
            "doubleSided" : true,
            "name" : "Material.001",
            "pbrMetallicRoughness" : {
                "baseColorFactor" : [
                    0.0084562748670578,
                    0.8000000715255737,
                    0.22199122607707977,
                    1
                ],
                "metallicFactor" : 0,
                "roughnessFactor" : 0.5
            }
        },
        {
            "doubleSided" : true,
            "name" : "Material.008",
            "pbrMetallicRoughness" : {
                "baseColorFactor" : [
                    0.28829190135002136,
                    0.26154017448425293,
                    0.057442326098680496,
                    1
                ],
                "metallicFactor" : 0,
                "roughnessFactor" : 0.5
            }
        },
        {
            "alphaMode" : "BLEND",
            "doubleSided" : true,
            "name" : "Material.010",
            "pbrMetallicRoughness" : {
                "baseColorFactor" : [
                    0.8000000715255737,
                    0.4988749325275421,
                    0.46450579166412354,
                    0
                ],
                "metallicFactor" : 0,
                "roughnessFactor" : 0
            }
        },
        {
            "doubleSided" : true,
            "name" : "Material.011",
            "pbrMetallicRoughness" : {
                "baseColorFactor" : [
                    0.052215978503227234,
                    0.04815220087766647,
                    0.01699802279472351,
                    1
                ],
                "metallicFactor" : 0,
                "roughnessFactor" : 0.5
            }
        },
        {
            "doubleSided" : true,
            "name" : "Material.009",
            "pbrMetallicRoughness" : {
                "baseColorFactor" : [
                    1,
                    0.6993820667266846,
                    0.45841625332832336,
                    1
                ],
                "metallicFactor" : 0,
                "roughnessFactor" : 0.5
            }
        }
    ],
    "meshes" : [
        {
            "name" : "Plane",
            "primitives" : [
                {
                    "attributes" : {
                        "POSITION" : 0,
                        "NORMAL" : 1,
                        "TEXCOORD_0" : 2
                    },
                    "indices" : 3,
                    "material" : 0
                }
            ]
        },
        {
            "name" : "Cylinder",
            "primitives" : [
                {
                    "attributes" : {
                        "POSITION" : 4,
                        "NORMAL" : 5,
                        "TEXCOORD_0" : 6
                    },
                    "indices" : 7,
                    "material" : 1
                },
                {
                    "attributes" : {
                        "POSITION" : 8,
                        "NORMAL" : 9,
                        "TEXCOORD_0" : 10
                    },
                    "indices" : 11,
                    "material" : 2
                },
                {
                    "attributes" : {
                        "POSITION" : 12,
                        "NORMAL" : 13,
                        "TEXCOORD_0" : 14
                    },
                    "indices" : 15,
                    "material" : 3
                }
            ]
        },
        {
            "name" : "Cylinder.002",
            "primitives" : [
                {
                    "attributes" : {
                        "POSITION" : 16,
                        "NORMAL" : 17,
                        "TEXCOORD_0" : 18
                    },
                    "indices" : 19,
                    "material" : 4
                }
            ]
        }
    ],
    "accessors" : [
        {
            "bufferView" : 0,
            "componentType" : 5126,
            "count" : 20,
            "max" : [
                1,
                1.3189048767089844,
                1
            ],
            "min" : [
                -1,
                -1.3189048767089844,
                -1
            ],
            "type" : "VEC3"
        },
        {
            "bufferView" : 1,
            "componentType" : 5126,
            "count" : 20,
            "type" : "VEC3"
        },
        {
            "bufferView" : 2,
            "componentType" : 5126,
            "count" : 20,
            "type" : "VEC2"
        },
        {
            "bufferView" : 3,
            "componentType" : 5123,
            "count" : 30,
            "type" : "SCALAR"
        },
        {
            "bufferView" : 4,
            "componentType" : 5126,
            "count" : 173,
            "max" : [
                1,
                1.9207240343093872,
                1
            ],
            "min" : [
                -1,
                -1,
                -1
            ],
            "type" : "VEC3"
        },
        {
            "bufferView" : 5,
            "componentType" : 5126,
            "count" : 173,
            "type" : "VEC3"
        },
        {
            "bufferView" : 6,
            "componentType" : 5126,
            "count" : 173,
            "type" : "VEC2"
        },
        {
            "bufferView" : 7,
            "componentType" : 5123,
            "count" : 702,
            "type" : "SCALAR"
        },
        {
            "bufferView" : 8,
            "componentType" : 5126,
            "count" : 56,
            "max" : [
                0.9238795638084412,
                1.9207240343093872,
                1
            ],
            "min" : [
                -0.9238795042037964,
                -1,
                0.18001417815685272
            ],
            "type" : "VEC3"
        },
        {
            "bufferView" : 9,
            "componentType" : 5126,
            "count" : 56,
            "type" : "VEC3"
        },
        {
            "bufferView" : 10,
            "componentType" : 5126,
            "count" : 56,
            "type" : "VEC2"
        },
        {
            "bufferView" : 11,
            "componentType" : 5123,
            "count" : 156,
            "type" : "SCALAR"
        },
        {
            "bufferView" : 12,
            "componentType" : 5126,
            "count" : 32,
            "max" : [
                0.9227222204208374,
                -0.9003428220748901,
                0.9227222204208374
            ],
            "min" : [
                -0.9227222204208374,
                -0.9003428220748901,
                -0.9227222204208374
            ],
            "type" : "VEC3"
        },
        {
            "bufferView" : 13,
            "componentType" : 5126,
            "count" : 32,
            "type" : "VEC3"
        },
        {
            "bufferView" : 14,
            "componentType" : 5126,
            "count" : 32,
            "type" : "VEC2"
        },
        {
            "bufferView" : 15,
            "componentType" : 5123,
            "count" : 90,
            "type" : "SCALAR"
        },
        {
            "bufferView" : 16,
            "componentType" : 5126,
            "count" : 64,
            "max" : [
                0.9227222204208374,
                -0.8071041703224182,
                0.9227222204208374
            ],
            "min" : [
                -0.9227222204208374,
                -0.9003428220748901,
                -0.9227222204208374
            ],
            "type" : "VEC3"
        },
        {
            "bufferView" : 17,
            "componentType" : 5126,
            "count" : 64,
            "type" : "VEC3"
        },
        {
            "bufferView" : 18,
            "componentType" : 5126,
            "count" : 64,
            "type" : "VEC2"
        },
        {
            "bufferView" : 19,
            "componentType" : 5123,
            "count" : 372,
            "type" : "SCALAR"
        }
    ],
    "bufferViews" : [
        {
            "buffer" : 0,
            "byteLength" : 240,
            "byteOffset" : 0
        },
        {
            "buffer" : 0,
            "byteLength" : 240,
            "byteOffset" : 240
        },
        {
            "buffer" : 0,
            "byteLength" : 160,
            "byteOffset" : 480
        },
        {
            "buffer" : 0,
            "byteLength" : 60,
            "byteOffset" : 640
        },
        {
            "buffer" : 0,
            "byteLength" : 2076,
            "byteOffset" : 700
        },
        {
            "buffer" : 0,
            "byteLength" : 2076,
            "byteOffset" : 2776
        },
        {
            "buffer" : 0,
            "byteLength" : 1384,
            "byteOffset" : 4852
        },
        {
            "buffer" : 0,
            "byteLength" : 1404,
            "byteOffset" : 6236
        },
        {
            "buffer" : 0,
            "byteLength" : 672,
            "byteOffset" : 7640
        },
        {
            "buffer" : 0,
            "byteLength" : 672,
            "byteOffset" : 8312
        },
        {
            "buffer" : 0,
            "byteLength" : 448,
            "byteOffset" : 8984
        },
        {
            "buffer" : 0,
            "byteLength" : 312,
            "byteOffset" : 9432
        },
        {
            "buffer" : 0,
            "byteLength" : 384,
            "byteOffset" : 9744
        },
        {
            "buffer" : 0,
            "byteLength" : 384,
            "byteOffset" : 10128
        },
        {
            "buffer" : 0,
            "byteLength" : 256,
            "byteOffset" : 10512
        },
        {
            "buffer" : 0,
            "byteLength" : 180,
            "byteOffset" : 10768
        },
        {
            "buffer" : 0,
            "byteLength" : 768,
            "byteOffset" : 10948
        },
        {
            "buffer" : 0,
            "byteLength" : 768,
            "byteOffset" : 11716
        },
        {
            "buffer" : 0,
            "byteLength" : 512,
            "byteOffset" : 12484
        },
        {
            "buffer" : 0,
            "byteLength" : 744,
            "byteOffset" : 12996
        }
    ],
    "buffers" : [
        {
            "byteLength" : 13740,
            "uri" : "carnot.bin"
        }
    ]
}
